<?xml version="1.0" encoding="UTF-8" standalone="no"?>
<!-- Created with Inkscape (http://www.inkscape.org/) -->

<svg
   xmlns:dc="http://purl.org/dc/elements/1.1/"
   xmlns:cc="http://creativecommons.org/ns#"
   xmlns:rdf="http://www.w3.org/1999/02/22-rdf-syntax-ns#"
   xmlns:svg="http://www.w3.org/2000/svg"
   xmlns="http://www.w3.org/2000/svg"
   xmlns:sodipodi="http://sodipodi.sourceforge.net/DTD/sodipodi-0.dtd"
   xmlns:inkscape="http://www.inkscape.org/namespaces/inkscape"
   width="23.143017mm"
   height="26.526781mm"
   viewBox="0 0 23.143017 26.526781"
   version="1.1"
   id="svg865"
   inkscape:version="0.92.3 (2405546, 2018-03-11)"
   sodipodi:docname="icon_small.svg">
  <defs
     id="defs859" />
  <sodipodi:namedview
     id="base"
     pagecolor="#ffffff"
     bordercolor="#666666"
     borderopacity="1.0"
     inkscape:pageopacity="0.0"
     inkscape:pageshadow="2"
     inkscape:zoom="3.959798"
     inkscape:cx="85.880431"
     inkscape:cy="25.163739"
     inkscape:document-units="mm"
     inkscape:current-layer="layer1"
     showgrid="false"
     fit-margin-top="0"
     fit-margin-left="0"
     fit-margin-right="0"
     fit-margin-bottom="0"
     inkscape:window-width="2560"
     inkscape:window-height="1368"
     inkscape:window-x="1600"
     inkscape:window-y="25"
     inkscape:window-maximized="1" />
  <metadata
     id="metadata862">
    <rdf:RDF>
      <cc:Work
         rdf:about="">
        <dc:format>image/svg+xml</dc:format>
        <dc:type
           rdf:resource="http://purl.org/dc/dcmitype/StillImage" />
        <dc:title />
      </cc:Work>
    </rdf:RDF>
  </metadata>
  <g
     inkscape:label="Layer 1"
     inkscape:groupmode="layer"
     id="layer1"
     transform="translate(-32.273729,-239.89137)">
    <path
       inkscape:connector-curvature="0"
       id="path161"
       style="clip-rule:evenodd;opacity:1;vector-effect:none;fill:#3c6791;fill-opacity:1;fill-rule:nonzero;stroke:none;stroke-width:0.34808737;stroke-linecap:butt;stroke-linejoin:miter;stroke-miterlimit:4;stroke-dasharray:none;stroke-dashoffset:0;stroke-opacity:1;marker:none"
       d="m 33.713533,260.0116 -1.404984,-13.36769 c -0.491749,-4.67865 4.289266,-5.85694 10.278836,-6.48648 5.989609,-0.62951 10.911113,-0.47097 11.402863,4.20764 l 1.40499,13.3677 c 0.123635,1.17632 -0.293854,2.28794 -1.043167,3.11 l 0.250087,2.37949 c 0.07728,0.73525 -0.46934,1.40085 -1.214634,1.4792 l -1.355074,0.14243 c -0.745373,0.0783 -1.418362,-0.45911 -1.495634,-1.19434 l -0.14052,-1.33677 -10.840843,1.13942 0.140495,1.33677 c 0.0773,0.73523 -0.469262,1.40084 -1.214565,1.47916 l -1.355144,0.14244 c -0.745302,0.0783 -1.418291,-0.45909 -1.495581,-1.19434 l -0.250082,-2.37947 c -0.903933,-0.64832 -1.543409,-1.64883 -1.667043,-2.82516 z m 4.825199,0.89415 c 1.122014,-0.11792 1.932669,-1.1179 1.814847,-2.23882 -0.117796,-1.12083 -1.118645,-1.93042 -2.240659,-1.8125 -1.122059,0.11795 -1.93272,1.11791 -1.814931,2.23876 0.117822,1.12092 1.118652,1.93048 2.240743,1.81256 z M 50.86138,259.6106 c 1.122077,-0.11794 1.932726,-1.11793 1.814918,-2.23882 -0.117809,-1.12086 -1.11864,-1.93042 -2.240735,-1.81249 -1.122003,0.11791 -1.932665,1.1179 -1.814844,2.23872 0.117825,1.12092 1.118654,1.93051 2.240661,1.81259 z"
       sodipodi:nodetypes="ssssscssssccsssscsssssssssss" />
    <g
       aria-label="ጉዞ
"
       transform="rotate(-5.9221754)"
       style="font-style:normal;font-variant:normal;font-weight:normal;font-stretch:normal;font-size:12.14903927px;line-height:125%;font-family:'DejaVu Sans';-inkscape-font-specification:'DejaVu Sans, Normal';text-align:start;letter-spacing:0.971919px;word-spacing:0px;writing-mode:lr-tb;text-anchor:start;clip-rule:evenodd;opacity:1;vector-effect:none;fill:#ffffff;fill-opacity:1;fill-rule:evenodd;stroke:#ffffff;stroke-width:0.3477827;stroke-linecap:butt;stroke-linejoin:miter;stroke-miterlimit:4;stroke-dasharray:none;stroke-dashoffset:0;stroke-opacity:1;marker:none"
       id="text169">
      <path
         d="m 13.214892,256.20231 q -0.272878,0 -0.367793,-0.0237 -0.09491,-0.0237 -0.219489,-0.11864 -0.177965,-0.13051 -0.231354,-0.29661 -0.05339,-0.1661 -0.0059,-0.41525 l 1.245751,-6.24062 q 0.07712,-0.4983 -0.177965,-0.64067 l -1.281344,0.20762 q -0.02966,0.16017 -0.106778,0.33813 -0.189829,0.40932 -0.628808,0.65847 -0.433047,0.24322 -1.103379,0.29068 h -0.261015 l 0.284743,-0.23729 q 0.278811,-0.23728 0.427115,-0.4983 0.148304,-0.26101 0.207625,-0.54576 0.05339,-0.26101 0,-0.59914 l 2.200827,-0.32627 q 0.788976,-0.14237 1.168633,-0.14237 0.272879,0 0.367793,0.0237 0.09491,0.0237 0.21949,0.11864 0.177964,0.13051 0.231354,0.29661 0.05339,0.1661 0.0059,0.41525 l -0.622876,3.10844 h 0.901687 q 0.189828,-0.40932 0.622875,-0.65253 0.438979,-0.24915 1.109312,-0.29661 h 0.261014 l -0.284743,0.23728 q -0.278811,0.23729 -0.427114,0.49831 -0.148304,0.26101 -0.207626,0.54575 -0.05932,0.28475 -0.01186,0.54576 0.04746,0.26102 0.231354,0.4983 l 0.189829,0.23729 h -0.261015 q -0.658468,-0.0475 -0.996601,-0.29068 -0.3322,-0.24915 -0.355929,-0.65847 h -0.901686 l -0.622876,3.10845 q -0.02966,0.15423 0.04746,0.29661 0.07712,0.14237 0.213557,0.24321 0.142371,0.10085 0.308472,0.17204 -0.788976,0.14237 -1.168634,0.14237 z"
         style="font-style:italic;font-variant:normal;font-weight:bold;font-stretch:normal;font-family:'Century Schoolbook L';-inkscape-font-specification:'Century Schoolbook L Bold Italic';vector-effect:none;fill:#ffffff;fill-opacity:1;stroke:#ffffff;stroke-width:0.3477827;stroke-linecap:butt;stroke-linejoin:miter;stroke-miterlimit:4;stroke-dasharray:none;stroke-dashoffset:0;stroke-opacity:1;marker:none"
         id="path817" />
      <path
         d="m 19.976588,256.20231 q -0.272879,0 -0.367793,-0.0237 -0.09491,-0.0237 -0.21949,-0.11864 -0.177964,-0.13051 -0.231353,-0.29661 -0.05339,-0.1661 -0.0059,-0.41525 l 1.127108,-5.64741 q 0.03559,-0.15423 -0.04746,-0.2966 -0.07712,-0.14238 -0.219489,-0.24322 -0.136439,-0.10085 -0.30254,-0.17203 0.788976,-0.14238 1.168634,-0.14238 0.272878,0 0.367793,0.0237 0.100846,0.0237 0.219489,0.11865 0.177965,0.1305 0.231354,0.2966 0.05932,0.1661 0.0059,0.41525 l -0.142371,0.73559 h 1.779644 l 0.391522,-1.96947 q 0.02966,-0.15424 -0.04746,-0.29661 -0.07712,-0.14237 -0.21949,-0.24322 -0.136439,-0.10085 -0.302539,-0.17203 0.788975,-0.14237 1.168633,-0.14237 0.272879,0 0.367793,0.0237 0.09491,0.0237 0.219489,0.11864 0.177965,0.13051 0.231354,0.29661 0.05339,0.1661 0.0059,0.41525 l -0.901686,4.50843 q -0.02966,0.15424 0.04746,0.29661 0.07712,0.14237 0.213557,0.24321 0.142372,0.10085 0.308472,0.17204 -0.788976,0.14237 -1.168633,0.14237 -0.272879,0 -0.367793,-0.0237 -0.09492,-0.0237 -0.21949,-0.11864 -0.177964,-0.13051 -0.231354,-0.29661 -0.05339,-0.1661 -0.0059,-0.41525 l 0.373726,-1.87456 h -1.779645 l -0.848297,4.24742 q -0.02966,0.15423 0.04746,0.29661 0.07712,0.14237 0.213558,0.24321 0.142371,0.10085 0.308471,0.17204 -0.788975,0.14237 -1.168633,0.14237 z"
         style="font-style:italic;font-variant:normal;font-weight:bold;font-stretch:normal;font-family:'Century Schoolbook L';-inkscape-font-specification:'Century Schoolbook L Bold Italic';vector-effect:none;fill:#ffffff;fill-opacity:1;stroke:#ffffff;stroke-width:0.3477827;stroke-linecap:butt;stroke-linejoin:miter;stroke-miterlimit:4;stroke-dasharray:none;stroke-dashoffset:0;stroke-opacity:1;marker:none"
         id="path819" />
    </g>
  </g>
</svg>
